<svg xmlns="http://www.w3.org/2000/svg" xmlns:xlink="http://www.w3.org/1999/xlink" viewBox="0,0,256,256" width="48px" height="48px" fill-rule="nonzero"><g fill="#2f4f2f" fill-rule="nonzero" stroke="none" stroke-width="1" stroke-linecap="butt" stroke-linejoin="miter" stroke-miterlimit="10" stroke-dasharray="" stroke-dashoffset="0" font-family="none" font-weight="none" font-size="none" text-anchor="none" style="mix-blend-mode: normal"><g transform="scale(10.66667,10.66667)"><path d="M5,3c-1.105,0 -2,0.895 -2,2v14c0,1.105 0.895,2 2,2h14c1.105,0 2,-0.895 2,-2v-14c0,-1.105 -0.895,-2 -2,-2zM11,6c2.761,0 5,2.239 5,5c0,1.019 -0.30803,1.96391 -0.83203,2.75391l2.83203,2.83203l-1.41406,1.41406l-2.83203,-2.83203c-0.79,0.524 -1.73491,0.83203 -2.75391,0.83203c-2.761,0 -5,-2.239 -5,-5c0,-2.761 2.239,-5 5,-5zM11,8c-1.65685,0 -3,1.34315 -3,3c0,1.65685 1.34315,3 3,3c1.65685,0 3,-1.34315 3,-3c0,-1.65685 -1.34315,-3 -3,-3z"></path></g></g></svg>